<?xml version="1.0" standalone="no"?>
<!DOCTYPE svg PUBLIC "-//W3C//DTD SVG 20010904//EN"
 "http://www.w3.org/TR/2001/REC-SVG-20010904/DTD/svg10.dtd">
<svg version="1.0" xmlns="http://www.w3.org/2000/svg"
 width="300.000000pt" height="300.000000pt" viewBox="0 0 300.000000 300.000000"
 preserveAspectRatio="xMidYMid meet">
<metadata>
Created by potrace 1.10, written by Peter Selinger 2001-2011
</metadata>
<g transform="translate(0.000000,300.000000) scale(0.100000,-0.100000)"
fill="#000000" stroke="none">
<path d="M353 2148 c4 -293 7 -694 7 -890 l0 -358 688 2 687 3 -682 2 -683 3
0 880 0 880 870 0 870 0 0 -95 0 -95 -867 -3 -868 -2 867 -3 868 -2 3 -177 2
-178 3 215 c1 118 5 245 9 283 l6 67 -893 0 -893 0 6 -532z"/>
<path d="M1092 2578 c4 -30 43 -33 43 -3 0 13 -8 21 -23 23 -20 3 -23 0 -20
-20z"/>
<path d="M1151 2574 c0 -16 3 -23 6 -16 4 10 8 10 19 1 11 -9 14 -6 13 17 0
16 -3 23 -6 16 -4 -10 -8 -10 -19 -1 -11 9 -14 6 -13 -17z"/>
<path d="M1201 2578 c-1 -24 3 -28 24 -28 21 0 25 4 24 28 -2 23 -2 24 -6 5
-2 -13 -11 -23 -18 -23 -7 0 -16 10 -18 23 -4 19 -4 18 -6 -5z"/>
<path d="M1260 2575 c0 -14 4 -25 9 -25 12 0 19 21 13 38 -8 21 -22 13 -22
-13z"/>
<path d="M1320 2575 c0 -20 5 -25 23 -24 19 1 19 2 3 6 -15 4 -16 7 -5 14 12
7 12 9 -1 10 -10 0 -8 3 5 9 19 8 19 9 -2 9 -18 1 -23 -5 -23 -24z"/>
<path d="M1376 2592 c7 -4 14 -16 17 -27 4 -18 5 -18 6 3 1 27 21 30 21 2 0
-14 6 -20 23 -19 20 0 21 1 3 8 -19 7 -19 8 1 13 25 7 53 -7 32 -15 -10 -4 -9
-6 3 -6 25 -1 31 16 11 28 -16 9 -16 10 5 11 16 0 22 -6 23 -22 1 -21 2 -21 6
-3 3 11 10 23 16 27 6 4 -31 7 -83 7 -52 0 -90 -3 -84 -7z"/>
<path d="M464 2579 c-10 -17 13 -36 27 -22 12 12 4 33 -11 33 -5 0 -12 -5 -16
-11z"/>
<path d="M520 2570 c0 -15 5 -20 18 -18 9 2 17 10 17 18 0 8 -8 16 -17 18 -13
2 -18 -3 -18 -18z"/>
<path d="M580 2570 c0 -15 5 -20 18 -18 9 2 17 10 17 18 0 8 -8 16 -17 18 -13
2 -18 -3 -18 -18z"/>
<path d="M903 2343 c192 -2 502 -2 690 0 188 1 32 2 -348 2 -379 0 -533 -1
-342 -2z"/>
<path d="M698 2293 c72 -2 192 -2 265 0 72 1 13 3 -133 3 -146 0 -205 -2 -132
-3z"/>
<path d="M580 2196 c0 -35 1 -36 36 -36 34 0 35 1 32 33 -3 28 -7 32 -35 35
-32 3 -33 2 -33 -32z m50 -6 c0 -13 -7 -20 -20 -20 -13 0 -20 7 -20 20 0 13 7
20 20 20 13 0 20 -7 20 -20z"/>
<path d="M691 2197 c-15 -38 -14 -42 5 -26 13 10 17 10 25 -2 7 -12 9 -12 9 2
0 8 -6 24 -14 35 -14 18 -15 18 -25 -9z"/>
<path d="M904 2188 c69 -5 164 -5 230 0 102 8 92 9 -119 9 -217 0 -223 0 -111
-9z"/>
<path d="M2125 2111 c-87 -22 -150 -89 -161 -172 -4 -30 -20 -70 -40 -102 -83
-130 -92 -184 -48 -290 24 -57 26 -67 16 -120 -17 -93 13 -137 95 -137 33 0
43 -4 48 -20 10 -33 63 -70 100 -70 18 0 68 7 111 16 156 32 361 -1 381 -61 3
-11 24 -37 46 -57 l41 -37 -53 26 c-85 43 -191 44 -323 4 -204 -61 -336 -66
-402 -16 -16 12 -17 18 -7 43 6 15 23 40 36 55 l25 26 51 -51 51 -51 81 6 c45
3 109 15 141 26 33 12 73 22 90 22 27 2 28 2 6 6 -15 2 -67 -5 -118 -17 -116
-25 -187 -26 -227 -1 -35 21 -70 76 -55 86 13 8 13 45 0 45 -5 0 -12 -11 -16
-25 -3 -13 -14 -27 -25 -30 -27 -9 -59 -54 -59 -82 0 -16 -30 -64 -82 -131
-163 -211 -329 -435 -342 -461 -7 -14 -16 -44 -20 -66 -4 -22 -10 -51 -13 -64
-6 -22 -4 -23 30 -17 33 6 37 4 66 -36 17 -23 31 -50 31 -60 0 -23 2 -23 46 7
20 14 43 25 50 25 7 0 16 14 19 32 4 17 37 67 74 111 l66 79 36 -79 c20 -44
51 -96 68 -116 24 -27 33 -48 37 -84 8 -82 8 -107 1 -124 -6 -12 8 -18 85 -33
355 -69 558 -90 644 -66 40 11 133 81 133 100 0 3 7 21 15 40 14 34 21 217 21
566 l0 111 -57 84 c-31 46 -84 111 -117 143 l-59 59 24 37 c75 114 72 316 -8
536 -66 185 -198 325 -303 323 -27 -1 -23 -4 30 -29 59 -27 151 -109 180 -161
36 -62 78 -161 98 -229 17 -60 22 -102 22 -210 0 -121 -2 -140 -24 -185 -13
-27 -25 -51 -26 -53 -2 -2 -21 6 -43 17 -21 11 -60 25 -86 32 l-46 11 38 28
c49 35 99 95 111 134 8 26 8 28 -2 12 -53 -83 -79 -114 -121 -143 -43 -30 -55
-33 -120 -33 -39 -1 -91 -5 -116 -11 -96 -21 -133 -21 -167 0 -18 12 -33 26
-33 32 0 6 15 1 34 -11 19 -11 37 -17 40 -11 3 5 -8 14 -25 22 -115 47 -149
140 -149 405 0 131 2 143 26 193 43 86 126 122 139 60 10 -45 65 -94 131 -116
35 -12 65 -29 77 -45 19 -25 19 -26 -7 -90 -14 -35 -26 -73 -26 -83 0 -9 16
-35 35 -56 41 -45 41 -49 15 -108 -23 -49 -28 -135 -7 -129 21 8 88 101 124
176 32 65 35 78 31 140 -4 58 -16 93 -87 252 -45 102 -92 195 -103 207 -33 35
-120 57 -173 44z m132 -62 c38 -23 67 -77 152 -275 64 -151 68 -209 21 -298
-16 -31 -37 -66 -46 -79 l-16 -22 6 29 c18 77 18 81 -13 126 -34 49 -38 82
-16 120 8 14 14 46 15 71 0 54 -28 86 -100 112 -51 19 -93 54 -115 97 -21 40
-48 53 -97 45 -37 -7 -39 -6 -30 11 14 27 58 66 90 81 36 17 106 8 149 -18z
m-347 -406 c0 -48 -3 -64 -10 -53 -17 26 -12 120 7 120 2 0 3 -30 3 -67z m686
-551 c16 -9 12 -11 -21 -17 -22 -3 -99 -21 -170 -40 -141 -38 -246 -46 -280
-21 -16 12 -9 15 66 26 46 7 100 20 119 28 92 38 239 50 286 24z m-585 -74
c39 -12 104 -22 164 -25 93 -5 110 -3 229 31 131 36 229 46 278 27 29 -11 108
-76 127 -105 11 -16 7 -15 -15 6 -40 36 -72 42 -134 24 -116 -35 -170 -85
-271 -254 -105 -174 -163 -232 -231 -232 -67 0 -117 38 -173 130 -27 45 -37
76 -49 155 -8 55 -24 118 -34 140 -32 65 -36 100 -16 135 l18 30 22 -21 c12
-11 50 -30 85 -41z m755 -69 c45 -37 53 -70 65 -270 14 -250 9 -443 -13 -484
-65 -120 -156 -144 -412 -110 -129 17 -368 64 -379 74 -4 4 -12 45 -19 92 -9
64 -17 92 -38 119 -15 19 -46 69 -68 111 l-42 76 1 109 c0 60 4 133 8 162 5
32 4 49 -2 43 -5 -5 -12 -77 -15 -160 -2 -83 -9 -148 -13 -145 -15 9 -47 -15
-93 -71 l-44 -54 -17 25 c-18 28 -72 64 -95 64 -8 0 4 -9 27 -19 23 -11 49
-31 59 -46 17 -27 17 -29 -7 -74 -31 -59 -68 -68 -94 -23 -9 15 -30 37 -46 48
-57 38 -37 87 118 294 137 182 192 250 202 250 17 0 62 -125 68 -188 7 -81 46
-173 97 -230 71 -78 150 -93 228 -42 48 32 95 93 176 230 88 148 128 185 242
221 58 18 83 17 106 -2z m93 -111 c6 -27 10 -75 10 -106 -1 -54 -2 -51 -15 38
-8 52 -18 105 -24 118 -14 32 -12 40 5 18 7 -10 19 -40 24 -68z"/>
<path d="M2331 920 c-82 -61 -153 -116 -157 -122 -4 -6 21 9 57 35 35 26 111
81 168 122 57 41 99 75 93 75 -5 0 -78 -50 -161 -110z"/>
<path d="M2583 635 c0 -38 2 -53 4 -32 2 20 2 52 0 70 -2 17 -4 1 -4 -38z"/>
<path d="M2572 440 l-1 -75 44 -50 c25 -27 45 -46 45 -42 0 4 -18 27 -40 50
-37 41 -39 47 -43 118 l-3 74 -2 -75z"/>
<path d="M2350 340 c-41 -6 -42 -7 -10 -8 19 0 58 3 85 8 47 7 48 7 10 7 -22
0 -60 -3 -85 -7z"/>
<path d="M580 2076 c0 -35 1 -36 36 -36 34 0 35 1 32 33 -3 28 -7 32 -35 35
-32 3 -33 2 -33 -32z"/>
<path d="M680 2076 c0 -21 5 -26 26 -26 21 0 25 4 22 23 -2 14 -11 23 -25 25
-19 3 -23 -1 -23 -22z"/>
<path d="M1063 2073 c147 -2 387 -2 535 0 147 1 26 2 -268 2 -294 0 -415 -1
-267 -2z"/>
<path d="M580 1955 c0 -33 2 -35 35 -35 33 0 35 2 35 35 0 33 -2 35 -35 35
-33 0 -35 -2 -35 -35z m50 0 c0 -18 -5 -25 -20 -25 -15 0 -20 7 -20 25 0 18 5
25 20 25 15 0 20 -7 20 -25z"/>
<path d="M684 1965 c-3 -8 -3 -19 1 -25 8 -13 45 -13 45 0 0 5 -7 7 -15 4 -9
-4 -15 0 -15 9 0 9 8 18 18 20 12 4 11 5 -6 6 -12 0 -25 -6 -28 -14z"/>
<path d="M923 1953 c75 -2 199 -2 275 0 75 1 13 3 -138 3 -151 0 -213 -2 -137
-3z"/>
<path d="M580 1834 c0 -34 1 -35 33 -32 28 3 32 7 35 36 3 31 2 32 -32 32 -35
0 -36 -1 -36 -36z m50 6 c0 -13 -7 -20 -20 -20 -13 0 -20 7 -20 20 0 13 7 20
20 20 13 0 20 -7 20 -20z"/>
<path d="M687 1863 c-4 -3 -7 -17 -7 -30 0 -27 30 -32 51 -7 11 14 10 18 -6
30 -21 16 -29 17 -38 7z"/>
<path d="M818 1833 c23 -2 61 -2 85 0 23 2 4 4 -43 4 -47 0 -66 -2 -42 -4z"/>
<path d="M2186 1771 c-3 -5 16 -11 44 -13 30 -2 49 1 47 7 -5 13 -83 19 -91 6z"/>
<path d="M1990 1750 c-8 -5 -12 -11 -9 -14 9 -9 79 6 73 15 -7 12 -45 11 -64
-1z"/>
<path d="M473 1703 c18 -5 18 -6 1 -24 -16 -18 -16 -19 14 -19 18 0 32 4 32
10 0 5 -6 7 -14 4 -11 -4 -13 0 -9 15 4 17 1 21 -18 20 -18 -1 -20 -2 -6 -6z"/>
<path d="M2213 1700 c-32 -13 -29 -15 22 -15 39 0 43 2 28 13 -19 14 -20 14
-50 2z"/>
<path d="M1997 1688 c-15 -11 -12 -13 23 -13 41 0 52 8 24 19 -22 8 -28 8 -47
-6z"/>
<path d="M2115 1679 c-4 -5 -17 -44 -30 -85 -24 -79 -21 -92 22 -81 14 4 13 5
-4 6 -25 1 -27 8 -14 44 5 13 16 47 25 75 14 50 15 64 1 41z"/>
<path d="M620 1670 c104 -10 1105 -10 1160 -1 25 5 -243 8 -595 8 -352 0 -606
-3 -565 -7z"/>
<path d="M2202 1623 c2 -10 10 -18 18 -18 8 0 16 8 18 18 2 12 -3 17 -18 17
-15 0 -20 -5 -18 -17z"/>
<path d="M683 1623 c76 -2 198 -2 270 0 73 1 11 3 -138 3 -148 0 -208 -2 -132
-3z"/>
<path d="M2002 1613 c2 -10 10 -18 18 -18 8 0 16 8 18 18 2 12 -3 17 -18 17
-15 0 -20 -5 -18 -17z"/>
<path d="M560 1515 c0 -33 2 -35 35 -35 33 0 35 2 35 35 0 33 -2 35 -35 35
-33 0 -35 -2 -35 -35z m55 0 c0 -11 -8 -21 -19 -23 -10 -2 -16 0 -12 6 3 6 1
12 -6 14 -17 6 1 30 20 26 10 -2 17 -12 17 -23z"/>
<path d="M673 1517 c-10 -22 -9 -24 17 -24 26 0 27 2 17 24 -5 13 -13 23 -17
23 -4 0 -12 -10 -17 -23z"/>
<path d="M883 1513 c64 -2 170 -2 235 0 64 1 11 3 -118 3 -129 0 -182 -2 -117
-3z"/>
<path d="M2177 1479 c-3 -11 -15 -23 -26 -26 -12 -3 -21 -10 -21 -15 0 -5 10
-6 23 -2 12 4 27 7 32 7 6 0 11 13 12 29 3 32 -12 38 -20 7z"/>
<path d="M560 1400 c0 -28 3 -30 35 -30 32 0 35 2 35 30 0 28 -3 30 -35 30
-32 0 -35 -2 -35 -30z m60 0 c0 -13 -7 -20 -20 -20 -13 0 -20 7 -20 20 0 13 7
20 20 20 13 0 20 -7 20 -20z"/>
<path d="M670 1401 c0 -25 4 -31 21 -31 16 0 20 5 17 27 -2 17 -10 29 -20 31
-14 3 -18 -3 -18 -27z"/>
<path d="M815 1400 c-27 -4 195 -7 495 -7 300 0 520 3 490 7 -68 10 -916 9
-985 0z"/>
<path d="M567 1313 c-4 -3 -7 -19 -7 -35 0 -25 3 -28 35 -28 33 0 35 2 35 35
0 32 -3 35 -28 35 -16 0 -32 -3 -35 -7z m53 -33 c0 -13 -7 -20 -20 -20 -13 0
-20 7 -20 20 0 13 7 20 20 20 13 0 20 -7 20 -20z"/>
<path d="M671 1296 c-9 -11 -8 -18 4 -30 9 -9 22 -13 28 -9 8 5 6 9 -6 11 -10
2 -16 9 -14 15 3 7 10 11 16 10 6 -2 11 2 11 7 0 15 -26 12 -39 -4z"/>
<path d="M908 1283 c79 -2 205 -2 280 0 75 1 11 3 -143 3 -154 0 -216 -2 -137
-3z"/>
<path d="M560 1165 c0 -33 2 -35 35 -35 33 0 35 2 35 35 0 33 -2 35 -35 35
-33 0 -35 -2 -35 -35z m60 0 c0 -18 -5 -25 -20 -25 -15 0 -20 7 -20 25 0 18 5
25 20 25 15 0 20 -7 20 -25z"/>
<path d="M670 1165 c0 -22 4 -26 23 -23 14 2 22 10 22 23 0 13 -8 21 -22 23
-19 3 -23 -1 -23 -23z"/>
<path d="M808 1163 c23 -2 59 -2 80 0 20 2 1 4 -43 4 -44 0 -61 -2 -37 -4z"/>
<path d="M1415 1145 c-32 -31 -32 -75 -1 -112 l24 -28 177 0 177 0 24 28 c31
37 32 86 1 115 -22 21 -32 22 -201 22 -175 0 -177 0 -201 -25z m351 -5 c25 0
48 -43 38 -72 -3 -10 -17 -23 -31 -29 -32 -12 -100 -12 -108 1 -3 6 -1 10 4
10 6 0 11 7 11 15 0 8 5 15 11 15 5 0 7 5 4 10 -10 17 -25 11 -25 -10 0 -11
-4 -20 -10 -20 -5 0 -10 9 -10 20 0 11 -5 20 -11 20 -6 0 -8 -8 -5 -17 5 -15
-1 -18 -34 -21 -37 -2 -40 0 -40 23 0 24 2 25 68 26 37 0 61 3 55 6 -32 13 2
35 42 27 11 -2 29 -4 41 -4z m-253 -10 c-26 -11 -38 -43 -24 -69 16 -29 14
-34 -15 -27 -50 13 -66 46 -42 86 10 15 23 20 58 19 36 0 41 -2 23 -9z m37
-45 c0 -17 -6 -22 -25 -22 -19 0 -25 5 -25 22 0 17 6 23 25 23 19 0 25 -6 25
-23z"/>
<path d="M2441 1166 c2 -2 38 -6 79 -9 44 -3 63 -2 45 3 -30 8 -132 13 -124 6z"/>
<path d="M346 762 c-5 -15 192 -489 229 -554 13 -22 483 -208 521 -207 25 1
23 2 -11 10 -69 14 -489 187 -502 206 -6 10 -62 134 -123 277 -73 169 -108
262 -102 268 11 11 414 -37 444 -53 23 -12 23 -23 1 -14 -23 9 -406 65 -411
60 -5 -5 17 -8 232 -40 92 -14 172 -27 176 -30 4 -3 58 -131 120 -285 62 -155
114 -279 116 -277 2 2 -45 127 -106 277 -60 151 -110 278 -110 284 0 30 33
-36 116 -236 l93 -223 69 3 c39 2 94 8 124 12 53 9 19 8 -146 -2 -24 -2 -41 2
-44 10 -5 17 229 17 246 0 9 -9 12 -7 12 9 0 27 20 41 21 16 1 -13 3 -11 8 6
8 29 62 64 73 47 5 -6 8 -2 8 10 0 12 7 24 15 28 19 7 20 26 0 26 -8 0 -19 -9
-25 -20 -6 -11 -31 -29 -56 -41 -26 -11 -48 -28 -51 -37 -3 -15 -20 -17 -135
-15 l-130 1 -87 208 c-62 149 -93 212 -111 225 -18 13 -81 25 -225 43 -238 31
-242 31 -249 8z"/>
<path d="M1738 343 c-34 -9 -18 -19 30 -19 37 0 55 -6 73 -23 13 -12 25 -18
27 -12 2 6 17 4 38 -5 19 -8 34 -10 34 -5 0 10 -148 72 -170 70 -8 -1 -23 -3
-32 -6z"/>
<path d="M240 270 l-245 -6 268 -2 c173 -1 267 2 267 8 0 6 -10 9 -22 8 -13
-1 -133 -5 -268 -8z"/>
<path d="M1517 243 c-4 -3 -7 -14 -7 -24 0 -23 -30 -14 -31 10 0 10 -4 8 -10
-8 -9 -22 -10 -23 -34 -7 -20 13 -25 14 -25 2 0 -25 26 -39 49 -24 18 11 26
10 55 -6 19 -10 42 -16 52 -12 9 3 22 1 30 -5 9 -7 18 -7 31 0 16 9 15 11 -7
12 -14 2 -32 3 -40 5 -8 1 -23 2 -34 3 -12 1 -16 6 -12 17 4 10 2 13 -6 8 -7
-5 -9 0 -6 14 6 23 5 26 -5 15z"/>
<path d="M1705 189 c-5 -7 8 -8 41 -3 64 9 68 14 11 14 -25 0 -49 -5 -52 -11z"/>
<path d="M1050 183 c0 -13 49 -133 60 -146 5 -6 584 41 707 58 35 5 42 4 37
-9 -4 -11 0 -13 15 -9 12 3 21 11 21 19 0 16 -33 14 -460 -26 -168 -15 -308
-25 -312 -21 -4 3 -20 38 -37 76 -17 39 -30 65 -31 58z"/>
<path d="M1270 176 c0 -6 169 -66 183 -66 18 1 -145 69 -165 70 -10 0 -18 -2
-18 -4z"/>
<path d="M1771 166 c-45 -16 -56 -42 -15 -32 61 13 115 16 154 7 22 -5 40 -5
40 -1 0 13 -35 21 -95 22 -30 1 -52 5 -49 10 6 9 8 10 -35 -6z"/>
<path d="M1515 50 c-48 -7 -48 -7 -10 -7 22 -1 65 2 95 7 54 7 54 7 10 7 -25
0 -67 -3 -95 -7z"/>
<path d="M1220 20 c-55 -7 -55 -7 -10 -7 25 -1 70 2 100 7 54 7 54 7 10 7 -25
0 -70 -3 -100 -7z"/>
</g>
</svg>
